<svg id="Calque_1" data-name="Calque 1" xmlns="http://www.w3.org/2000/svg" viewBox="0 0 48.82 45.22"><defs><style>.cls-1,.cls-2{fill:#fff;}.cls-2{stroke:#fff;stroke-miterlimit:10;stroke-width:0.25px;}.cls-3{fill:#24326a;}</style></defs><path class="cls-1" d="M17.17,49.35a.46.46,0,0,1-.08-.17s0,0,.11,0h1.21l.08,0a.09.09,0,0,1,.06,0,.14.14,0,0,1,.06.07l.08.13,2.74,4.52,2.82-4.58a.45.45,0,0,1,.11-.14.38.38,0,0,1,.14,0h1.24c.05,0,.08,0,.08,0l0,0-.06.09-1.82,2.92c-.59,1-1.21,1.95-1.84,2.94L22,57.89a.28.28,0,0,1-.06.2.25.25,0,0,1-.19.06H21a.21.21,0,0,1-.17-.06.34.34,0,0,1-.05-.2l.08-2.67Z" transform="translate(-17.09 -12.94)"/><path class="cls-1" d="M28,57.84c0,.22-.11.32-.33.32H27c-.23,0-.34-.1-.34-.32V51.29a.28.28,0,0,1,.1-.23A.29.29,0,0,1,27,51h.6a.33.33,0,0,1,.25.09.3.3,0,0,1,.1.23Z" transform="translate(-17.09 -12.94)"/><path class="cls-1" d="M34.14,55a.24.24,0,0,1,.18.07.28.28,0,0,1,.07.21v.76a.28.28,0,0,1-.06.18.22.22,0,0,1-.19.08H31.38v1.57a.26.26,0,0,1-.08.19.28.28,0,0,1-.18.06h-.74a.24.24,0,0,1-.19-.07.25.25,0,0,1-.08-.18V51.24a.23.23,0,0,1,.26-.26H35a.22.22,0,0,1,.18.08.24.24,0,0,1,.07.18V52a.32.32,0,0,1-.07.2.29.29,0,0,1-.18.07H31.38V55Z" transform="translate(-17.09 -12.94)"/><path class="cls-1" d="M36.1,58.16q-.27,0-.27-.18a.38.38,0,0,1,0-.13.43.43,0,0,1,0-.05l3-6.82a.83.83,0,0,1,.08-.12s.11-.07.24-.07h0a.37.37,0,0,1,.16,0l.09.06a.3.3,0,0,1,0,.08.08.08,0,0,0,0,.06l.63,1.45.49,1.07.42.88.4.87c.15.31.31.67.48,1.07s.38.88.61,1.45h0l0,.07s0,.05,0,.07a.08.08,0,0,1,0,0c0,.12-.09.18-.26.18Zm1.51-1.28h3.2l-1.63-3.74Z" transform="translate(-17.09 -12.94)"/><path class="cls-1" d="M44.1,58.16c-.17,0-.26-.08-.26-.25V51.25a.27.27,0,0,1,.08-.19A.23.23,0,0,1,44.1,51h1a.29.29,0,0,1,.25.14L48.88,56V51.2A.35.35,0,0,1,49,51a.25.25,0,0,1,.17-.06h.76a.35.35,0,0,1,.2.07.22.22,0,0,1,.09.19v6.67c0,.17-.1.25-.29.25Zm1-1.28H48l-2.88-4Z" transform="translate(-17.09 -12.94)"/><path class="cls-1" d="M51.8,58.16q-.27,0-.27-.18v-.13s0,0,0-.05l3-6.82.08-.12s.11-.07.23-.07h.06a.39.39,0,0,1,.16,0l.08.06s0,.05,0,.08l0,.06c.24.57.45,1.05.63,1.45s.34.76.49,1.07.28.6.41.88.27.56.41.87.31.67.48,1.07.38.88.61,1.45h0l0,.07s0,.05,0,.07a.08.08,0,0,1,0,0c0,.12-.09.18-.26.18Zm1.51-1.28H56.5l-1.62-3.74Z" transform="translate(-17.09 -12.94)"/><path class="cls-1" d="M64.63,51.09c0,.08,0,0,.06,0a.26.26,0,0,1,.19-.08h.75a.37.37,0,0,1,.2.07.21.21,0,0,1,.08.19v6.67c0,.17-.09.25-.28.25h-.75c-.18,0-.26-.08-.26-.25l0-.74H60.82l0,.73c0,.17-.09.25-.29.25H59.8c-.17,0-.26-.08-.26-.25V51.24a.24.24,0,0,1,.07-.18A.26.26,0,0,1,59.8,51h.76a.28.28,0,0,1,.2.08.22.22,0,0,1,.08.18l0,5.12,3.8,0Z" transform="translate(-17.09 -12.94)"/><path class="cls-2" d="M55.53,48.24A3.26,3.26,0,0,0,54,46.59a3,3,0,0,0-2.12-.08l-1.17.33s0,0,0-.05a5.29,5.29,0,0,1,.41-5.08,1.59,1.59,0,0,1,1.63-.83,2.21,2.21,0,0,0,1.89-.74,2.89,2.89,0,0,0,.85-2,.62.62,0,0,0-.56-.71c-.7-.11-1,.31-.79,1a4.68,4.68,0,0,1,.17.53.33.33,0,0,1-.26.43,4.08,4.08,0,0,0-.16-.6.28.28,0,0,0-.46-.13,1.6,1.6,0,0,0-.4.42c-.16.25-.08.44.22.51a4.17,4.17,0,0,0,.61,0c0,.31-.49.48-.95.29s-.52-.43-.3-.79.43-.64.65-1a3.12,3.12,0,0,0,.59-1.75,3.68,3.68,0,0,0-.44-1.59c-.55-1.09-1.13-2.17-1.71-3.25a10.75,10.75,0,0,0-1.33-2,2.31,2.31,0,0,0-2-.79,3.38,3.38,0,0,0-3.09,2.62,2.46,2.46,0,0,0,0,1.37.51.51,0,0,0,.6.42.27.27,0,0,1,.17.08c.1.13.18.28.27.42-.09.1-.19.19-.27.29-.43.53-.3,1,.34,1.2a5.34,5.34,0,0,0,1.63.3,8.51,8.51,0,0,0,1.42-.29h0a.48.48,0,0,0,.26-.77A2.7,2.7,0,0,0,47,33.27a5.39,5.39,0,0,0-.77.31l-.3-.46a3.25,3.25,0,0,1,4.32,1,.91.91,0,0,0-.12-.35,3.67,3.67,0,0,0-3.86-1.68c-.51.08-.65.37-.5.87,0,0,0,.05,0,.07-.25.08-.41,0-.49-.18a1.57,1.57,0,0,1-.14-.7A3.26,3.26,0,0,1,47,29.26a2.59,2.59,0,0,1,3.64.82l.05.06c.44.75.91,1.48,1.32,2.25q.8,1.47,1.5,3a2.36,2.36,0,0,1,0,2,5,5,0,0,1-.38.72c-.2.32-.44.62-.64.95a.61.61,0,0,0,.39,1,1.19,1.19,0,0,0,.37.06.61.61,0,0,0,.66-.44.35.35,0,0,1,.11-.13.55.55,0,0,0,.29-.77c-.07-.21-.15-.4-.22-.61a.39.39,0,0,1,.14-.46.81.81,0,0,1,.82-.07c.25.11.28.35.28.6A2.41,2.41,0,0,1,55,39.4a2.3,2.3,0,0,1-2.28,1.38,1.72,1.72,0,0,0-1.7.82,5.52,5.52,0,0,0-.83,4,10.51,10.51,0,0,0,.37,1.26l-1.71.56a13.13,13.13,0,0,1-5.39.54A15.14,15.14,0,0,1,38,46.24,23.82,23.82,0,0,1,32.41,42a13.58,13.58,0,0,1-3.93-7.08A5.93,5.93,0,0,1,28.32,33a1.68,1.68,0,0,1,1.59-1.62,1.55,1.55,0,0,1,.31,0,3.8,3.8,0,0,0,3.23-1.76c.32-.46.55-1,.83-1.49.08-.14.13-.3.22-.44s.15-.18.23-.18.16.12.2.2a1.49,1.49,0,0,1,.15.45c.09.78.21,1.56.25,2.34a71.83,71.83,0,0,1-.14,7.19,6.23,6.23,0,0,0,0,1.06c0,.38.29.5.63.32a1.92,1.92,0,0,0,.51-.39,16.21,16.21,0,0,0,1.13-1.46,14.07,14.07,0,0,0,1.8-4.37c.23-.86.41-1.74.62-2.61a2,2,0,0,1,1.54-1.61.43.43,0,0,0,.33-.61c0-.1-.08-.2-.12-.32l.23,0a2.31,2.31,0,0,0,2.43-1.42c.33-1,.7-2.06,1.07-3.09A1.24,1.24,0,0,0,45.31,22a1,1,0,0,1-.07-.83c0-.15.13-.26.32-.17a.85.85,0,0,0,.23,0l0-.06-.26-.11c-.22-.07-.29-.19-.18-.41s.2-.35.3-.52a1.64,1.64,0,0,0,.22-1.35c-.21-.82-.39-1.65-.56-2.48a1.66,1.66,0,0,0-.3-.78c-.41-.49-.8-1-1.23-1.45a2.54,2.54,0,0,0-2.38-.81,6.67,6.67,0,0,0-3.05,1.35,9.52,9.52,0,0,0-2.21,2.64c-.43.68-.87,1.35-1.32,2a6.21,6.21,0,0,1-.49.57c-.08-.17-.14-.31-.21-.44a.63.63,0,0,0-.81-.33,1.21,1.21,0,0,0-.86.9,2.54,2.54,0,0,0,.78,2.41c.33.33.69.24.9-.19a.63.63,0,0,0,.07-.22,3.17,3.17,0,0,1,.16-.92.3.3,0,0,0-.07-.24c-.1-.09-.38,0-.49.13s0,.25.07.35c.25.26.25.27,0,.53s-.42.26-.62,0a2.52,2.52,0,0,1-.36-1.23A1.29,1.29,0,0,1,33,20a.2.2,0,0,1,.31-.15,1,1,0,0,0,1,0c.29.27.48.27.76,0a4.6,4.6,0,0,0,.41-.47c.64-.75,1.25-1.52,1.9-2.26a3.42,3.42,0,0,1,1.94-1.2,4.61,4.61,0,0,1,2.15.2,2.23,2.23,0,0,1,1.06.61,1,1,0,0,1,.3.66c-.2-.08-.36-.13-.51-.2-.5-.24-1-.5-1.49-.71a3.7,3.7,0,0,0-1.8-.32.83.83,0,0,0-.73.55,1.34,1.34,0,0,0,.9,1.78l1.33.34a3,3,0,0,0,1.33.06l.18-.05c0-.06-.1-.08-.14-.07a1.38,1.38,0,0,1-1.26-.27,1.13,1.13,0,0,0-1.54-.24c-.19.13-.39-.06-.52-.24a1.45,1.45,0,0,1-.23-1.09.73.73,0,0,1,.75-.67,2.49,2.49,0,0,1,.61,0,6.64,6.64,0,0,1,2,.68c.3.16.61.32.93.46.07,0,.21,0,.24,0a.36.36,0,0,0,0-.27,1.59,1.59,0,0,0-.62-.76,4.21,4.21,0,0,0-1.49-.52,3.33,3.33,0,0,0-3.17.89c-.19.19-.39.38-.56.58l-1.84,2.24a2,2,0,0,1-.37.34c-.17.12-.28.07-.39-.09.25-.33.53-.64.75-1,.57-.85,1.09-1.72,1.67-2.56a7,7,0,0,1,4.1-3,2.68,2.68,0,0,1,3,.86l1,1.18a1.24,1.24,0,0,1,.19,1.44,2.05,2.05,0,0,1-.2.39c-.25.34-.32.81-.72,1.06a.45.45,0,0,0-.13.32,1.73,1.73,0,0,0,.16,1.07,3.08,3.08,0,0,0,.76,1,.51.51,0,0,1,.17.29,1,1,0,0,1-.6.78.62.62,0,0,1-.8-.21l.17-.11c.14-.1.14-.19,0-.29a.71.71,0,0,0-1,.15,1.24,1.24,0,0,0-.06.29,1.28,1.28,0,0,0,.27.05.64.64,0,0,1,.57.13.7.7,0,0,1,.31.64h.09a2.23,2.23,0,0,0-.07-.48c.38,0,.38,0,1.07-.49a1.45,1.45,0,0,0,.22,1,.74.74,0,0,1,0,.65c-.24.71-.49,1.41-.73,2.12-.12.34-.23.68-.35,1l-.06.16h-.06l.12-.79a2.17,2.17,0,0,0,0-.25h-.08c0,.05,0,.06,0,.11-.06.31-.08.63-.15.94a1.28,1.28,0,0,1-.23.59,2.1,2.1,0,0,1-2.15.72.58.58,0,0,1-.24-.14c-.23-.22-.45-.46-.69-.67-.65-.57-1.32-1.12-2-1.7a3.1,3.1,0,0,1-.88-1.2.91.91,0,0,1,.31-1.13,5.8,5.8,0,0,1,.52-.34c.19-.11.38-.21.56-.33a.73.73,0,0,0,.15-1.17,1.62,1.62,0,0,0-.32-.32A3.21,3.21,0,0,0,36.42,20a2.44,2.44,0,0,0-2,2.19,3.87,3.87,0,0,0,1.15,3.11,4.63,4.63,0,0,0,2,1.15c1.24.41,2.49.76,3.73,1.14a.64.64,0,0,1,.36.55c0,.21-.08.31-.34.37a2,2,0,0,0-1.44,1.33,14.77,14.77,0,0,0-.38,1.49,19.68,19.68,0,0,1-1.65,5,8.67,8.67,0,0,1-1.65,2.32,2.83,2.83,0,0,1-.57.38c-.16.08-.28,0-.34-.17a1.06,1.06,0,0,1-.05-.31c0-.45,0-.9,0-1.35a65.24,65.24,0,0,0,.1-7.13c0-.66-.15-1.32-.25-2a1.68,1.68,0,0,0-.22-.56.24.24,0,0,0-.44,0,4,4,0,0,0-.26.45,16.53,16.53,0,0,1-.85,1.55,3.59,3.59,0,0,1-2.21,1.63,10,10,0,0,1-1.24.15,1.67,1.67,0,0,0-1.64,1.39,3.82,3.82,0,0,0-.07,1.26,12.36,12.36,0,0,0,2.42,6.17,22.27,22.27,0,0,0,7.9,6.55,13.56,13.56,0,0,0,10.5.89l1.6-.53A7.71,7.71,0,0,0,53,49.59a5.07,5.07,0,0,0,2.08,1c.57.09.84-.13.86-.7A3.46,3.46,0,0,0,55.53,48.24ZM47.81,33.36a2.72,2.72,0,0,1,1.54.85,1.24,1.24,0,0,1,.23.32.33.33,0,0,1-.16.5,1.28,1.28,0,0,1-.79.13,3.71,3.71,0,0,1-1.88-1l-.38-.4A1.69,1.69,0,0,1,47.81,33.36Zm-.64,1.23c.31.23.67.4,1,.6A9.9,9.9,0,0,1,46,34.68a3.43,3.43,0,0,0,1.1.42c.39.09.78.15,1.21.24a4.37,4.37,0,0,1-1.58-.14,3.65,3.65,0,0,1-.56-.18.51.51,0,0,1-.25-.84,3.29,3.29,0,0,1,.33-.41C46.57,34.06,46.85,34.35,47.17,34.59Zm-.86-2.37a3.58,3.58,0,0,1,3.42,1.13s0,0,0,.07a3.31,3.31,0,0,0-1.82-.8A3.43,3.43,0,0,0,46,33Q45.64,32.33,46.31,32.22Zm7.18,7.37c-.15-.07-.39-.1-.43-.21s.08-.32.19-.44a.51.51,0,0,1,.37-.2c.1,0,.16.23.24.35v0C53.94,39.48,53.88,39.56,53.49,39.59ZM33.91,20.86c0-.08.23-.08.35-.11l0,.5h-.09C34.07,21.11,33.79,21.08,33.91,20.86Zm.21-1a1.85,1.85,0,0,1-.67,0c-.46-.16-.61-.07-.63.42a2.69,2.69,0,0,0,.33,1.36c.25.44.53.47.86.08l.11-.12,0,0a2.74,2.74,0,0,1,0,.28c-.16.5-.51.6-.87.22a2.51,2.51,0,0,1-.7-2.12,1.15,1.15,0,0,1,.73-.92.55.55,0,0,1,.79.27c.07.12.12.26.19.41A.38.38,0,0,1,34.12,19.84Zm6.66-1.06-1.59-.4C39.59,17.76,40.42,18.28,40.78,18.78Zm2.15,2.63a.57.57,0,0,1,1-.23A1,1,0,0,1,42.93,21.41Zm2-4.15c.12-.24.23-.49.35-.75.15.63.29,1.25.44,1.91-.44-.36-.44-.36-1.2-.45C44.67,17.72,44.81,17.5,44.94,17.26Zm.88,1.89c-.23-.58-.83-.69-1.29-1A1,1,0,0,1,45.82,19.15Zm-1.37.73a1.76,1.76,0,0,1-.35-1.26.5.5,0,0,1,.27-.45l.48.27c.14.08.29.15.43.24a.83.83,0,0,1,.34,1.19c-.09.16-.19.31-.28.46s-.1.24-.16.38C44.94,20.44,44.67,20.17,44.45,19.88Zm-3.21,7.57c-1.07-.31-2.15-.61-3.21-.95a5.69,5.69,0,0,1-2.17-1.12A3.69,3.69,0,0,1,34.6,22a2.38,2.38,0,0,1,2.09-2,3.12,3.12,0,0,1,2.38.61,1.67,1.67,0,0,1,.4.44.56.56,0,0,1-.14.8,4.32,4.32,0,0,1-.5.33c-.18.11-.37.2-.54.32a1.09,1.09,0,0,0-.39,1.54,4,4,0,0,0,1,1.21c.59.52,1.2,1,1.79,1.53.23.2.43.41.68.64Zm14,23a4.27,4.27,0,0,1-1.06-.29,7.25,7.25,0,0,1-3.32-3l-.1-.2A6.65,6.65,0,0,1,53,46.46a2.58,2.58,0,0,1,2.15,1.35,3.84,3.84,0,0,1,.61,1.67,2.12,2.12,0,0,1,0,.56C55.72,50.36,55.57,50.5,55.24,50.46Z" transform="translate(-17.09 -12.94)"/><path class="cls-2" d="M51.89,38.49a1.71,1.71,0,0,0-1.1-1.06,3.13,3.13,0,0,0-3.44,1.21.93.93,0,0,1-.87.55,1.36,1.36,0,0,1-1.16-.51,1.27,1.27,0,0,0-1.11-.59s0,0-.1,0a1.33,1.33,0,0,0,.5-1l.54,0c.17,0,.24-.08.14-.21a2.57,2.57,0,0,0-.51-.48c-.17-.12-.29,0-.3.18s0,.23,0,.35c-.26.05-.41,0-.67-.26s-.43-.36-.67.17a2.88,2.88,0,0,1-.06-.41,2.23,2.23,0,0,1,.52-1.3,3.36,3.36,0,0,0,.74-1.19,1.17,1.17,0,0,0-.55-1.52,1.67,1.67,0,0,0-1.43-.11l-.24.08.08-.16a1.19,1.19,0,0,1,1.41-.48c.3.09.6.22.9.32a.91.91,0,0,0,.8-.11,2,2,0,0,0,.88-1.32A1.36,1.36,0,0,0,44.74,29,2.45,2.45,0,0,0,42.85,30,4.46,4.46,0,0,0,42,33.26c0,.33.08.66.1,1s-.13.35-.38.25a2.39,2.39,0,0,1-.32-.16l-.15-.06,0,.06a1.71,1.71,0,0,0,.75.53,3.71,3.71,0,0,0-.83,1.85A6.85,6.85,0,0,0,41.25,39c.1.56.26,1.1.38,1.65a8.67,8.67,0,0,1,.1,2.22,1,1,0,0,0,.68,1,1.74,1.74,0,0,0,.48.14c.68.06,1.36.12,2,.15a10.11,10.11,0,0,0,3.15-.2,12.52,12.52,0,0,0,2.14-.8A4,4,0,0,0,51.89,38.49Zm-7.28-2.07a1.11,1.11,0,0,1,.64.55l-.64,0Zm.65,3.43-2-.49A1.39,1.39,0,0,1,45.26,39.85Zm-1-10.7a2.3,2.3,0,0,1,.51-.1,1.28,1.28,0,0,1,1.35,1.71,1.93,1.93,0,0,1-.8,1.1.79.79,0,0,1-.68.11L44,31.75a1.4,1.4,0,0,0-1.87.38A3.38,3.38,0,0,1,44.22,29.15Zm5.56,14.17a9.3,9.3,0,0,1-4.5.79c-.77,0-1.53-.09-2.29-.15a1.8,1.8,0,0,1-.52-.13.93.93,0,0,1-.64-1,8.55,8.55,0,0,0-.29-2.93,7.33,7.33,0,0,1-.27-3.09,3.44,3.44,0,0,1,.69-1.7.37.37,0,0,1,.37-.15,1.9,1.9,0,0,0,1.31-.3.59.59,0,0,0,.13-.18c-.06,0-.13-.09-.19-.09a1.06,1.06,0,0,0-1.27.3.39.39,0,0,1-.54,0c.34,0,.48-.07.46-.38s-.07-.76-.11-1.14c0-.2,0-.4,0-.59a1.7,1.7,0,0,1,1.58-.08,1.06,1.06,0,0,1,.62,1.39A3.39,3.39,0,0,1,43.57,35,2.23,2.23,0,0,0,43,36.46a1.16,1.16,0,0,0,.34.71c.12.15.5.09.61-.06s0-.14-.08-.15a2.29,2.29,0,0,1-.37,0c-.07,0-.19-.09-.18-.12a2.08,2.08,0,0,1,.12-.32.68.68,0,0,1,.21.1,1,1,0,0,0,.84.43c.06.47-.3.72-.52,1.06l-.37-.1a.56.56,0,0,0-.57.08,1.51,1.51,0,0,0-.59,1.32,1.31,1.31,0,0,0,.12.37s0,0,0,.1c-.13.26-.05.46.24.5a9.81,9.81,0,0,0,1.08.08h1.63c.3,0,.34,0,.37-.35l.12,0c.2,0,.27-.08.17-.25s-.29-.49-.44-.74c.16,0,.31.09.47.12a1.05,1.05,0,0,0,1.26-.55,3.05,3.05,0,0,1,3.15-1.23,1.64,1.64,0,0,1,1.28,1.18A3.93,3.93,0,0,1,49.78,43.32ZM42.3,34.81a.87.87,0,0,1,1.32-.32A1.38,1.38,0,0,1,42.3,34.81Z" transform="translate(-17.09 -12.94)"/><path class="cls-1" d="M51,23.45a3.25,3.25,0,0,0-1.84-2.94.91.91,0,0,0-.37,0c.07.1.12.23.22.28a3,3,0,0,1-.17,5.43c-.11.05-.17.18-.25.28a1.29,1.29,0,0,0,.39,0A3.26,3.26,0,0,0,51,23.45Zm-1-.26a2.29,2.29,0,0,0-1.37-1.89.9.9,0,0,0-.33,0c.06.1.1.25.19.3a2.15,2.15,0,0,1-.1,3.89c-.09,0-.15.17-.23.27.13,0,.26.06.36,0A2.53,2.53,0,0,0,50.05,23.19ZM48,25l.13-.06a1.59,1.59,0,0,0,1-1.4,1.57,1.57,0,0,0-.93-1.47.77.77,0,0,0-.3,0c.05.09.08.23.16.27a1.25,1.25,0,0,1,0,2.28.56.56,0,0,0-.17.25S47.91,25,48,25Z" transform="translate(-17.09 -12.94)"/><path class="cls-1" d="M51,23.45a3.26,3.26,0,0,1-2,3.05,1.29,1.29,0,0,1-.39,0c.08-.1.14-.23.25-.28a3,3,0,0,0,.17-5.43c-.1-.05-.15-.18-.22-.28a.91.91,0,0,1,.37,0A3.25,3.25,0,0,1,51,23.45Z" transform="translate(-17.09 -12.94)"/><path class="cls-1" d="M50.05,23.19a2.53,2.53,0,0,1-1.48,2.58c-.1,0-.23,0-.36,0,.08-.1.14-.23.23-.27a2.15,2.15,0,0,0,.1-3.89c-.09-.05-.13-.2-.19-.3a.9.9,0,0,1,.33,0A2.29,2.29,0,0,1,50.05,23.19Z" transform="translate(-17.09 -12.94)"/><path class="cls-1" d="M48,25c-.05,0-.15-.1-.14-.12a.56.56,0,0,1,.17-.25,1.25,1.25,0,0,0,0-2.28c-.08,0-.11-.18-.16-.27a.77.77,0,0,1,.3,0,1.57,1.57,0,0,1,.93,1.47,1.59,1.59,0,0,1-1,1.4Z" transform="translate(-17.09 -12.94)"/><path class="cls-2" d="M44.3,25.32v-.07a.17.17,0,0,1,0-.07A2,2,0,0,0,44,22.85a.59.59,0,0,0,.1-.31H44c0,.21-.07.26-.27.17a.92.92,0,0,0-.88,0l-.23.1a2.53,2.53,0,0,0-1,.63c-.19.21-.2.26,0,.41L42,24l1.38.59a6.61,6.61,0,0,1,.68.39.38.38,0,0,1,.16.32" transform="translate(-17.09 -12.94)"/><path class="cls-3" d="M42.76,23.42a.88.88,0,0,1,1.08.4Z" transform="translate(-17.09 -12.94)"/></svg>